M48
; DRILL file {KiCad (5.1.4)-1} date 2019-10-26 12:02:30 PM
; FORMAT={-:-/ absolute / inch / decimal}
; #@! TF.CreationDate,2019-10-26T12:02:30-04:00
; #@! TF.GenerationSoftware,Kicad,Pcbnew,(5.1.4)-1
; #@! TF.FileFunction,Plated,1,2,PTH
FMAT,2
INCH
T1C0.0157
T2C0.0402
T3C0.1063
%
G90
G05
T1
X4.5866Y-3.937
X4.5866Y-4.2913
X4.6063Y-4.3898
X4.6457Y-3.8386
X4.6457Y-3.937
X4.6457Y-4.2913
X4.6457Y-4.3504
X4.6457Y-4.4488
X4.685Y-4.3898
X4.7047Y-3.8386
X4.7244Y-4.2913
X4.7638Y-3.8386
X4.7835Y-4.2913
X4.8031Y-3.622
X4.8031Y-3.6811
X4.8031Y-3.7402
X4.8228Y-3.8386
X4.8228Y-4.5866
X4.8228Y-4.6457
X4.8425Y-3.937
X4.8425Y-4.2913
X4.8622Y-3.622
X4.8622Y-3.6811
X4.8622Y-3.7402
X4.8819Y-3.8386
X4.9016Y-4.2913
X4.9016Y-4.5866
X4.9016Y-4.6457
X4.9213Y-3.6417
X4.9213Y-4.1732
X5.0787Y-3.6417
X5.1772Y-3.6024
X5.6102Y-3.8583
T2
X5.8268Y-4.5063
X5.8268Y-4.6063
X5.8268Y-4.2307
X5.8268Y-4.3307
X5.8268Y-3.6614
X5.8268Y-3.7614
X5.8268Y-3.9354
X5.8268Y-4.0354
T3
X5.5709Y-3.6614
X5.5709Y-4.6063
X4.6457Y-4.6063
X4.6457Y-3.6614
T0
M30
