G04 #@! TF.GenerationSoftware,KiCad,Pcbnew,(5.1.4)-1*
G04 #@! TF.CreationDate,2019-10-26T12:02:25-04:00*
G04 #@! TF.ProjectId,solar_NiMH_emulation,736f6c61-725f-44e6-994d-485f656d756c,rev?*
G04 #@! TF.SameCoordinates,Original*
G04 #@! TF.FileFunction,Legend,Bot*
G04 #@! TF.FilePolarity,Positive*
%FSLAX46Y46*%
G04 Gerber Fmt 4.6, Leading zero omitted, Abs format (unit mm)*
G04 Created by KiCad (PCBNEW (5.1.4)-1) date 2019-10-26 12:02:25*
%MOMM*%
%LPD*%
G04 APERTURE LIST*
%ADD10C,0.200000*%
G04 APERTURE END LIST*
D10*
X156229166Y-92261904D02*
X156229166Y-92738095D01*
X156557738Y-92166666D02*
X155407738Y-92500000D01*
X156557738Y-92833333D01*
X156557738Y-93595238D02*
X155407738Y-93595238D01*
X156502976Y-93595238D02*
X156557738Y-93500000D01*
X156557738Y-93309523D01*
X156502976Y-93214285D01*
X156448214Y-93166666D01*
X156338690Y-93119047D01*
X156010119Y-93119047D01*
X155900595Y-93166666D01*
X155845833Y-93214285D01*
X155791071Y-93309523D01*
X155791071Y-93500000D01*
X155845833Y-93595238D01*
X155791071Y-94071428D02*
X156776785Y-94071428D01*
X156886309Y-94023809D01*
X156941071Y-93928571D01*
X156941071Y-93880952D01*
X155407738Y-94071428D02*
X155462500Y-94023809D01*
X155517261Y-94071428D01*
X155462500Y-94119047D01*
X155407738Y-94071428D01*
X155517261Y-94071428D01*
X155791071Y-94976190D02*
X156557738Y-94976190D01*
X155791071Y-94547619D02*
X156393452Y-94547619D01*
X156502976Y-94595238D01*
X156557738Y-94690476D01*
X156557738Y-94833333D01*
X156502976Y-94928571D01*
X156448214Y-94976190D01*
X156502976Y-95404761D02*
X156557738Y-95500000D01*
X156557738Y-95690476D01*
X156502976Y-95785714D01*
X156393452Y-95833333D01*
X156338690Y-95833333D01*
X156229166Y-95785714D01*
X156174404Y-95690476D01*
X156174404Y-95547619D01*
X156119642Y-95452380D01*
X156010119Y-95404761D01*
X155955357Y-95404761D01*
X155845833Y-95452380D01*
X155791071Y-95547619D01*
X155791071Y-95690476D01*
X155845833Y-95785714D01*
X155791071Y-96119047D02*
X155791071Y-96500000D01*
X155407738Y-96261904D02*
X156393452Y-96261904D01*
X156502976Y-96309523D01*
X156557738Y-96404761D01*
X156557738Y-96500000D01*
X156557738Y-97261904D02*
X155955357Y-97261904D01*
X155845833Y-97214285D01*
X155791071Y-97119047D01*
X155791071Y-96928571D01*
X155845833Y-96833333D01*
X156502976Y-97261904D02*
X156557738Y-97166666D01*
X156557738Y-96928571D01*
X156502976Y-96833333D01*
X156393452Y-96785714D01*
X156283928Y-96785714D01*
X156174404Y-96833333D01*
X156119642Y-96928571D01*
X156119642Y-97166666D01*
X156064880Y-97261904D01*
X156557738Y-97738095D02*
X155407738Y-97738095D01*
X155845833Y-97738095D02*
X155791071Y-97833333D01*
X155791071Y-98023809D01*
X155845833Y-98119047D01*
X155900595Y-98166666D01*
X156010119Y-98214285D01*
X156338690Y-98214285D01*
X156448214Y-98166666D01*
X156502976Y-98119047D01*
X156557738Y-98023809D01*
X156557738Y-97833333D01*
X156502976Y-97738095D01*
X156557738Y-98785714D02*
X156502976Y-98690476D01*
X156393452Y-98642857D01*
X155407738Y-98642857D01*
X156502976Y-99547619D02*
X156557738Y-99452380D01*
X156557738Y-99261904D01*
X156502976Y-99166666D01*
X156393452Y-99119047D01*
X155955357Y-99119047D01*
X155845833Y-99166666D01*
X155791071Y-99261904D01*
X155791071Y-99452380D01*
X155845833Y-99547619D01*
X155955357Y-99595238D01*
X156064880Y-99595238D01*
X156174404Y-99119047D01*
X156557738Y-100928571D02*
X156502976Y-100833333D01*
X156448214Y-100785714D01*
X156338690Y-100738095D01*
X156010119Y-100738095D01*
X155900595Y-100785714D01*
X155845833Y-100833333D01*
X155791071Y-100928571D01*
X155791071Y-101071428D01*
X155845833Y-101166666D01*
X155900595Y-101214285D01*
X156010119Y-101261904D01*
X156338690Y-101261904D01*
X156448214Y-101214285D01*
X156502976Y-101166666D01*
X156557738Y-101071428D01*
X156557738Y-100928571D01*
X155791071Y-102119047D02*
X156557738Y-102119047D01*
X155791071Y-101690476D02*
X156393452Y-101690476D01*
X156502976Y-101738095D01*
X156557738Y-101833333D01*
X156557738Y-101976190D01*
X156502976Y-102071428D01*
X156448214Y-102119047D01*
X155791071Y-102452380D02*
X155791071Y-102833333D01*
X155407738Y-102595238D02*
X156393452Y-102595238D01*
X156502976Y-102642857D01*
X156557738Y-102738095D01*
X156557738Y-102833333D01*
X155791071Y-103166666D02*
X156941071Y-103166666D01*
X155845833Y-103166666D02*
X155791071Y-103261904D01*
X155791071Y-103452380D01*
X155845833Y-103547619D01*
X155900595Y-103595238D01*
X156010119Y-103642857D01*
X156338690Y-103642857D01*
X156448214Y-103595238D01*
X156502976Y-103547619D01*
X156557738Y-103452380D01*
X156557738Y-103261904D01*
X156502976Y-103166666D01*
X155791071Y-104500000D02*
X156557738Y-104500000D01*
X155791071Y-104071428D02*
X156393452Y-104071428D01*
X156502976Y-104119047D01*
X156557738Y-104214285D01*
X156557738Y-104357142D01*
X156502976Y-104452380D01*
X156448214Y-104500000D01*
X155791071Y-104833333D02*
X155791071Y-105214285D01*
X155407738Y-104976190D02*
X156393452Y-104976190D01*
X156502976Y-105023809D01*
X156557738Y-105119047D01*
X156557738Y-105214285D01*
X156557738Y-106452380D02*
X156502976Y-106357142D01*
X156393452Y-106309523D01*
X155407738Y-106309523D01*
X156557738Y-106833333D02*
X155791071Y-106833333D01*
X155407738Y-106833333D02*
X155462500Y-106785714D01*
X155517261Y-106833333D01*
X155462500Y-106880952D01*
X155407738Y-106833333D01*
X155517261Y-106833333D01*
X155791071Y-107309523D02*
X156557738Y-107309523D01*
X155900595Y-107309523D02*
X155845833Y-107357142D01*
X155791071Y-107452380D01*
X155791071Y-107595238D01*
X155845833Y-107690476D01*
X155955357Y-107738095D01*
X156557738Y-107738095D01*
X156502976Y-108595238D02*
X156557738Y-108500000D01*
X156557738Y-108309523D01*
X156502976Y-108214285D01*
X156393452Y-108166666D01*
X155955357Y-108166666D01*
X155845833Y-108214285D01*
X155791071Y-108309523D01*
X155791071Y-108500000D01*
X155845833Y-108595238D01*
X155955357Y-108642857D01*
X156064880Y-108642857D01*
X156174404Y-108166666D01*
X156557738Y-109500000D02*
X155955357Y-109500000D01*
X155845833Y-109452380D01*
X155791071Y-109357142D01*
X155791071Y-109166666D01*
X155845833Y-109071428D01*
X156502976Y-109500000D02*
X156557738Y-109404761D01*
X156557738Y-109166666D01*
X156502976Y-109071428D01*
X156393452Y-109023809D01*
X156283928Y-109023809D01*
X156174404Y-109071428D01*
X156119642Y-109166666D01*
X156119642Y-109404761D01*
X156064880Y-109500000D01*
X156557738Y-109976190D02*
X155791071Y-109976190D01*
X156010119Y-109976190D02*
X155900595Y-110023809D01*
X155845833Y-110071428D01*
X155791071Y-110166666D01*
X155791071Y-110261904D01*
X156557738Y-111357142D02*
X155791071Y-111357142D01*
X156010119Y-111357142D02*
X155900595Y-111404761D01*
X155845833Y-111452380D01*
X155791071Y-111547619D01*
X155791071Y-111642857D01*
X156502976Y-112357142D02*
X156557738Y-112261904D01*
X156557738Y-112071428D01*
X156502976Y-111976190D01*
X156393452Y-111928571D01*
X155955357Y-111928571D01*
X155845833Y-111976190D01*
X155791071Y-112071428D01*
X155791071Y-112261904D01*
X155845833Y-112357142D01*
X155955357Y-112404761D01*
X156064880Y-112404761D01*
X156174404Y-111928571D01*
X155791071Y-113261904D02*
X156722023Y-113261904D01*
X156831547Y-113214285D01*
X156886309Y-113166666D01*
X156941071Y-113071428D01*
X156941071Y-112928571D01*
X156886309Y-112833333D01*
X156502976Y-113261904D02*
X156557738Y-113166666D01*
X156557738Y-112976190D01*
X156502976Y-112880952D01*
X156448214Y-112833333D01*
X156338690Y-112785714D01*
X156010119Y-112785714D01*
X155900595Y-112833333D01*
X155845833Y-112880952D01*
X155791071Y-112976190D01*
X155791071Y-113166666D01*
X155845833Y-113261904D01*
X155791071Y-114166666D02*
X156557738Y-114166666D01*
X155791071Y-113738095D02*
X156393452Y-113738095D01*
X156502976Y-113785714D01*
X156557738Y-113880952D01*
X156557738Y-114023809D01*
X156502976Y-114119047D01*
X156448214Y-114166666D01*
X156557738Y-114785714D02*
X156502976Y-114690476D01*
X156393452Y-114642857D01*
X155407738Y-114642857D01*
X156557738Y-115595238D02*
X155955357Y-115595238D01*
X155845833Y-115547619D01*
X155791071Y-115452380D01*
X155791071Y-115261904D01*
X155845833Y-115166666D01*
X156502976Y-115595238D02*
X156557738Y-115500000D01*
X156557738Y-115261904D01*
X156502976Y-115166666D01*
X156393452Y-115119047D01*
X156283928Y-115119047D01*
X156174404Y-115166666D01*
X156119642Y-115261904D01*
X156119642Y-115500000D01*
X156064880Y-115595238D01*
X155791071Y-115928571D02*
X155791071Y-116309523D01*
X155407738Y-116071428D02*
X156393452Y-116071428D01*
X156502976Y-116119047D01*
X156557738Y-116214285D01*
X156557738Y-116309523D01*
X156557738Y-116785714D02*
X156502976Y-116690476D01*
X156448214Y-116642857D01*
X156338690Y-116595238D01*
X156010119Y-116595238D01*
X155900595Y-116642857D01*
X155845833Y-116690476D01*
X155791071Y-116785714D01*
X155791071Y-116928571D01*
X155845833Y-117023809D01*
X155900595Y-117071428D01*
X156010119Y-117119047D01*
X156338690Y-117119047D01*
X156448214Y-117071428D01*
X156502976Y-117023809D01*
X156557738Y-116928571D01*
X156557738Y-116785714D01*
X156557738Y-117547619D02*
X155791071Y-117547619D01*
X156010119Y-117547619D02*
X155900595Y-117595238D01*
X155845833Y-117642857D01*
X155791071Y-117738095D01*
X155791071Y-117833333D01*
X157332738Y-100309523D02*
X158263690Y-100309523D01*
X158373214Y-100357142D01*
X158427976Y-100404761D01*
X158482738Y-100500000D01*
X158482738Y-100690476D01*
X158427976Y-100785714D01*
X158373214Y-100833333D01*
X158263690Y-100880952D01*
X157332738Y-100880952D01*
X158427976Y-101309523D02*
X158482738Y-101452380D01*
X158482738Y-101690476D01*
X158427976Y-101785714D01*
X158373214Y-101833333D01*
X158263690Y-101880952D01*
X158154166Y-101880952D01*
X158044642Y-101833333D01*
X157989880Y-101785714D01*
X157935119Y-101690476D01*
X157880357Y-101500000D01*
X157825595Y-101404761D01*
X157770833Y-101357142D01*
X157661309Y-101309523D01*
X157551785Y-101309523D01*
X157442261Y-101357142D01*
X157387500Y-101404761D01*
X157332738Y-101500000D01*
X157332738Y-101738095D01*
X157387500Y-101880952D01*
X157880357Y-102642857D02*
X157935119Y-102785714D01*
X157989880Y-102833333D01*
X158099404Y-102880952D01*
X158263690Y-102880952D01*
X158373214Y-102833333D01*
X158427976Y-102785714D01*
X158482738Y-102690476D01*
X158482738Y-102309523D01*
X157332738Y-102309523D01*
X157332738Y-102642857D01*
X157387500Y-102738095D01*
X157442261Y-102785714D01*
X157551785Y-102833333D01*
X157661309Y-102833333D01*
X157770833Y-102785714D01*
X157825595Y-102738095D01*
X157880357Y-102642857D01*
X157880357Y-102309523D01*
X157716071Y-104071428D02*
X158866071Y-104071428D01*
X157770833Y-104071428D02*
X157716071Y-104166666D01*
X157716071Y-104357142D01*
X157770833Y-104452380D01*
X157825595Y-104500000D01*
X157935119Y-104547619D01*
X158263690Y-104547619D01*
X158373214Y-104500000D01*
X158427976Y-104452380D01*
X158482738Y-104357142D01*
X158482738Y-104166666D01*
X158427976Y-104071428D01*
X158482738Y-105119047D02*
X158427976Y-105023809D01*
X158373214Y-104976190D01*
X158263690Y-104928571D01*
X157935119Y-104928571D01*
X157825595Y-104976190D01*
X157770833Y-105023809D01*
X157716071Y-105119047D01*
X157716071Y-105261904D01*
X157770833Y-105357142D01*
X157825595Y-105404761D01*
X157935119Y-105452380D01*
X158263690Y-105452380D01*
X158373214Y-105404761D01*
X158427976Y-105357142D01*
X158482738Y-105261904D01*
X158482738Y-105119047D01*
X157716071Y-105785714D02*
X158482738Y-105976190D01*
X157935119Y-106166666D01*
X158482738Y-106357142D01*
X157716071Y-106547619D01*
X158427976Y-107309523D02*
X158482738Y-107214285D01*
X158482738Y-107023809D01*
X158427976Y-106928571D01*
X158318452Y-106880952D01*
X157880357Y-106880952D01*
X157770833Y-106928571D01*
X157716071Y-107023809D01*
X157716071Y-107214285D01*
X157770833Y-107309523D01*
X157880357Y-107357142D01*
X157989880Y-107357142D01*
X158099404Y-106880952D01*
X158482738Y-107785714D02*
X157716071Y-107785714D01*
X157935119Y-107785714D02*
X157825595Y-107833333D01*
X157770833Y-107880952D01*
X157716071Y-107976190D01*
X157716071Y-108071428D01*
X158427976Y-108785714D02*
X158482738Y-108690476D01*
X158482738Y-108500000D01*
X158427976Y-108404761D01*
X158318452Y-108357142D01*
X157880357Y-108357142D01*
X157770833Y-108404761D01*
X157716071Y-108500000D01*
X157716071Y-108690476D01*
X157770833Y-108785714D01*
X157880357Y-108833333D01*
X157989880Y-108833333D01*
X158099404Y-108357142D01*
X158482738Y-109690476D02*
X157332738Y-109690476D01*
X158427976Y-109690476D02*
X158482738Y-109595238D01*
X158482738Y-109404761D01*
X158427976Y-109309523D01*
X158373214Y-109261904D01*
X158263690Y-109214285D01*
X157935119Y-109214285D01*
X157825595Y-109261904D01*
X157770833Y-109309523D01*
X157716071Y-109404761D01*
X157716071Y-109595238D01*
X157770833Y-109690476D01*
M02*
