G04 #@! TF.GenerationSoftware,KiCad,Pcbnew,(5.1.4)-1*
G04 #@! TF.CreationDate,2019-10-26T12:02:25-04:00*
G04 #@! TF.ProjectId,solar_NiMH_emulation,736f6c61-725f-44e6-994d-485f656d756c,rev?*
G04 #@! TF.SameCoordinates,Original*
G04 #@! TF.FileFunction,Legend,Top*
G04 #@! TF.FilePolarity,Positive*
%FSLAX46Y46*%
G04 Gerber Fmt 4.6, Leading zero omitted, Abs format (unit mm)*
G04 Created by KiCad (PCBNEW (5.1.4)-1) date 2019-10-26 12:02:25*
%MOMM*%
%LPD*%
G04 APERTURE LIST*
%ADD10C,0.250000*%
%ADD11C,0.450000*%
%ADD12C,0.010000*%
%ADD13C,0.120000*%
%ADD14C,0.100000*%
%ADD15C,0.150000*%
G04 APERTURE END LIST*
D10*
X120985714Y-110688095D02*
X120985714Y-111740476D01*
X121042857Y-111864285D01*
X121100000Y-111926190D01*
X121214285Y-111988095D01*
X121442857Y-111988095D01*
X121557142Y-111926190D01*
X121614285Y-111864285D01*
X121671428Y-111740476D01*
X121671428Y-110688095D01*
X122185714Y-111926190D02*
X122357142Y-111988095D01*
X122642857Y-111988095D01*
X122757142Y-111926190D01*
X122814285Y-111864285D01*
X122871428Y-111740476D01*
X122871428Y-111616666D01*
X122814285Y-111492857D01*
X122757142Y-111430952D01*
X122642857Y-111369047D01*
X122414285Y-111307142D01*
X122300000Y-111245238D01*
X122242857Y-111183333D01*
X122185714Y-111059523D01*
X122185714Y-110935714D01*
X122242857Y-110811904D01*
X122300000Y-110750000D01*
X122414285Y-110688095D01*
X122700000Y-110688095D01*
X122871428Y-110750000D01*
X123785714Y-111307142D02*
X123957142Y-111369047D01*
X124014285Y-111430952D01*
X124071428Y-111554761D01*
X124071428Y-111740476D01*
X124014285Y-111864285D01*
X123957142Y-111926190D01*
X123842857Y-111988095D01*
X123385714Y-111988095D01*
X123385714Y-110688095D01*
X123785714Y-110688095D01*
X123900000Y-110750000D01*
X123957142Y-110811904D01*
X124014285Y-110935714D01*
X124014285Y-111059523D01*
X123957142Y-111183333D01*
X123900000Y-111245238D01*
X123785714Y-111307142D01*
X123385714Y-111307142D01*
X120185714Y-114188095D02*
X120185714Y-112888095D01*
X120757142Y-114188095D02*
X120757142Y-112888095D01*
X121442857Y-114188095D01*
X121442857Y-112888095D01*
X122014285Y-114188095D02*
X122014285Y-112888095D01*
X122471428Y-112888095D01*
X122585714Y-112950000D01*
X122642857Y-113011904D01*
X122700000Y-113135714D01*
X122700000Y-113321428D01*
X122642857Y-113445238D01*
X122585714Y-113507142D01*
X122471428Y-113569047D01*
X122014285Y-113569047D01*
X123214285Y-112888095D02*
X123214285Y-113940476D01*
X123271428Y-114064285D01*
X123328571Y-114126190D01*
X123442857Y-114188095D01*
X123671428Y-114188095D01*
X123785714Y-114126190D01*
X123842857Y-114064285D01*
X123900000Y-113940476D01*
X123900000Y-112888095D01*
X124300000Y-112888095D02*
X124985714Y-112888095D01*
X124642857Y-114188095D02*
X124642857Y-112888095D01*
D11*
X128666666Y-116795238D02*
X129047619Y-116795238D01*
X129238095Y-116900000D01*
X129428571Y-117109523D01*
X129523809Y-117528571D01*
X129523809Y-118261904D01*
X129428571Y-118680952D01*
X129238095Y-118890476D01*
X129047619Y-118995238D01*
X128666666Y-118995238D01*
X128476190Y-118890476D01*
X128285714Y-118680952D01*
X128190476Y-118261904D01*
X128190476Y-117528571D01*
X128285714Y-117109523D01*
X128476190Y-116900000D01*
X128666666Y-116795238D01*
X130285714Y-118890476D02*
X130571428Y-118995238D01*
X131047619Y-118995238D01*
X131238095Y-118890476D01*
X131333333Y-118785714D01*
X131428571Y-118576190D01*
X131428571Y-118366666D01*
X131333333Y-118157142D01*
X131238095Y-118052380D01*
X131047619Y-117947619D01*
X130666666Y-117842857D01*
X130476190Y-117738095D01*
X130380952Y-117633333D01*
X130285714Y-117423809D01*
X130285714Y-117214285D01*
X130380952Y-117004761D01*
X130476190Y-116900000D01*
X130666666Y-116795238D01*
X131142857Y-116795238D01*
X131428571Y-116900000D01*
X132285714Y-118995238D02*
X132285714Y-116795238D01*
X132285714Y-117842857D02*
X133428571Y-117842857D01*
X133428571Y-118995238D02*
X133428571Y-116795238D01*
X134190476Y-116795238D02*
X134666666Y-118995238D01*
X135047619Y-117423809D01*
X135428571Y-118995238D01*
X135904761Y-116795238D01*
D12*
G36*
X132746536Y-108600427D02*
G01*
X132859118Y-109197618D01*
X133274531Y-109368865D01*
X133689945Y-109540112D01*
X134188302Y-109201233D01*
X134327869Y-109106877D01*
X134454029Y-109022630D01*
X134560896Y-108952338D01*
X134642583Y-108899847D01*
X134693202Y-108869004D01*
X134706987Y-108862353D01*
X134731821Y-108879458D01*
X134784889Y-108926744D01*
X134860241Y-108998172D01*
X134951930Y-109087700D01*
X135054008Y-109189289D01*
X135160527Y-109296898D01*
X135265537Y-109404487D01*
X135363092Y-109506015D01*
X135447243Y-109595441D01*
X135512041Y-109666726D01*
X135551538Y-109713828D01*
X135560981Y-109729592D01*
X135547392Y-109758653D01*
X135509294Y-109822321D01*
X135450694Y-109914367D01*
X135375598Y-110028564D01*
X135288009Y-110158684D01*
X135237255Y-110232901D01*
X135144746Y-110368422D01*
X135062541Y-110490716D01*
X134994631Y-110593695D01*
X134945001Y-110671273D01*
X134917641Y-110717361D01*
X134913530Y-110727047D01*
X134922850Y-110754574D01*
X134948255Y-110818728D01*
X134985912Y-110910490D01*
X135031987Y-111020839D01*
X135082647Y-111140755D01*
X135134060Y-111261219D01*
X135182390Y-111373209D01*
X135223807Y-111467707D01*
X135254475Y-111535692D01*
X135270562Y-111568143D01*
X135271512Y-111569420D01*
X135296773Y-111575617D01*
X135364046Y-111589440D01*
X135466361Y-111609532D01*
X135596742Y-111634534D01*
X135748217Y-111663086D01*
X135836594Y-111679551D01*
X135998453Y-111710369D01*
X136144650Y-111739694D01*
X136267788Y-111765921D01*
X136360470Y-111787446D01*
X136415302Y-111802665D01*
X136426324Y-111807493D01*
X136437119Y-111840174D01*
X136445830Y-111913985D01*
X136452461Y-112020292D01*
X136457019Y-112150467D01*
X136459510Y-112295876D01*
X136459939Y-112447890D01*
X136458312Y-112597877D01*
X136454636Y-112737206D01*
X136448916Y-112857245D01*
X136441158Y-112949365D01*
X136431369Y-113004932D01*
X136425497Y-113016500D01*
X136390400Y-113030365D01*
X136316029Y-113050188D01*
X136212224Y-113073639D01*
X136088820Y-113098391D01*
X136045742Y-113106398D01*
X135838048Y-113144441D01*
X135673985Y-113175079D01*
X135548131Y-113199529D01*
X135455066Y-113219009D01*
X135389368Y-113234736D01*
X135345618Y-113247928D01*
X135318393Y-113259804D01*
X135302273Y-113271580D01*
X135300018Y-113273908D01*
X135277504Y-113311400D01*
X135243159Y-113384365D01*
X135200412Y-113483867D01*
X135152693Y-113600973D01*
X135103431Y-113726748D01*
X135056056Y-113852257D01*
X135013996Y-113968565D01*
X134980681Y-114066739D01*
X134959542Y-114137843D01*
X134954006Y-114172942D01*
X134954467Y-114174172D01*
X134973224Y-114202861D01*
X135015777Y-114265985D01*
X135077654Y-114356973D01*
X135154383Y-114469255D01*
X135241492Y-114596260D01*
X135266299Y-114632353D01*
X135354753Y-114763203D01*
X135432589Y-114882591D01*
X135495567Y-114983662D01*
X135539446Y-115059559D01*
X135559986Y-115103427D01*
X135560981Y-115108817D01*
X135543723Y-115137144D01*
X135496036Y-115193261D01*
X135424051Y-115271137D01*
X135333898Y-115364740D01*
X135231706Y-115468041D01*
X135123606Y-115575006D01*
X135015729Y-115679606D01*
X134914205Y-115775809D01*
X134825163Y-115857584D01*
X134754734Y-115918900D01*
X134709048Y-115953726D01*
X134696410Y-115959412D01*
X134666992Y-115946020D01*
X134606762Y-115909899D01*
X134525530Y-115857136D01*
X134463031Y-115814667D01*
X134349786Y-115736740D01*
X134215675Y-115644984D01*
X134081156Y-115553375D01*
X134008834Y-115504346D01*
X133764039Y-115338770D01*
X133558551Y-115449875D01*
X133464937Y-115498548D01*
X133385331Y-115536381D01*
X133331468Y-115557958D01*
X133317758Y-115560961D01*
X133301271Y-115538793D01*
X133268746Y-115476149D01*
X133222609Y-115378809D01*
X133165291Y-115252549D01*
X133099217Y-115103150D01*
X133026816Y-114936388D01*
X132950517Y-114758042D01*
X132872747Y-114573891D01*
X132795935Y-114389712D01*
X132722507Y-114211285D01*
X132654893Y-114044387D01*
X132595521Y-113894797D01*
X132546817Y-113768293D01*
X132511211Y-113670654D01*
X132491131Y-113607657D01*
X132487901Y-113586021D01*
X132513497Y-113558424D01*
X132569539Y-113513625D01*
X132644312Y-113460934D01*
X132650588Y-113456765D01*
X132843846Y-113302069D01*
X132999675Y-113121591D01*
X133116725Y-112921102D01*
X133193646Y-112706374D01*
X133229087Y-112483177D01*
X133221698Y-112257281D01*
X133170128Y-112034459D01*
X133073027Y-111820479D01*
X133044459Y-111773664D01*
X132895869Y-111584618D01*
X132720328Y-111432812D01*
X132523911Y-111319034D01*
X132312694Y-111244075D01*
X132092754Y-111208722D01*
X131870164Y-111213767D01*
X131651002Y-111259999D01*
X131441343Y-111348206D01*
X131247262Y-111479179D01*
X131187227Y-111532337D01*
X131034436Y-111698739D01*
X130923098Y-111873912D01*
X130846724Y-112070266D01*
X130804188Y-112264717D01*
X130793687Y-112483342D01*
X130828701Y-112703052D01*
X130905674Y-112916420D01*
X131021048Y-113116022D01*
X131171266Y-113294429D01*
X131352774Y-113444217D01*
X131376628Y-113460006D01*
X131452202Y-113511712D01*
X131509652Y-113556512D01*
X131537118Y-113585117D01*
X131537518Y-113586021D01*
X131531621Y-113616964D01*
X131508246Y-113687191D01*
X131469822Y-113790925D01*
X131418778Y-113922390D01*
X131357543Y-114075807D01*
X131288545Y-114245401D01*
X131214214Y-114425393D01*
X131136979Y-114610008D01*
X131059269Y-114793468D01*
X130983512Y-114969996D01*
X130912138Y-115133814D01*
X130847575Y-115279147D01*
X130792253Y-115400217D01*
X130748601Y-115491247D01*
X130719047Y-115546460D01*
X130707145Y-115560961D01*
X130670778Y-115549669D01*
X130602731Y-115519385D01*
X130514737Y-115475520D01*
X130466351Y-115449875D01*
X130260864Y-115338770D01*
X130016069Y-115504346D01*
X129891107Y-115589170D01*
X129754296Y-115682516D01*
X129626089Y-115770408D01*
X129561872Y-115814667D01*
X129471552Y-115875318D01*
X129395072Y-115923381D01*
X129342408Y-115952770D01*
X129325303Y-115958982D01*
X129300406Y-115942223D01*
X129245306Y-115895436D01*
X129165344Y-115823480D01*
X129065861Y-115731212D01*
X128952201Y-115623490D01*
X128880316Y-115554326D01*
X128754552Y-115430757D01*
X128645864Y-115320234D01*
X128558646Y-115227485D01*
X128497290Y-115157237D01*
X128466192Y-115114220D01*
X128463209Y-115105490D01*
X128477054Y-115072284D01*
X128515313Y-115005142D01*
X128573742Y-114910863D01*
X128648098Y-114796245D01*
X128734136Y-114668083D01*
X128758603Y-114632353D01*
X128847755Y-114502489D01*
X128927739Y-114385569D01*
X128994081Y-114288162D01*
X129042312Y-114216839D01*
X129067958Y-114178170D01*
X129070436Y-114174172D01*
X129066730Y-114143355D01*
X129047062Y-114075599D01*
X129014861Y-113979839D01*
X128973556Y-113865009D01*
X128926576Y-113740044D01*
X128877350Y-113613879D01*
X128829309Y-113495448D01*
X128785882Y-113393685D01*
X128750497Y-113317526D01*
X128726585Y-113275904D01*
X128724885Y-113273908D01*
X128710263Y-113262013D01*
X128685566Y-113250250D01*
X128645373Y-113237401D01*
X128584264Y-113222249D01*
X128496818Y-113203576D01*
X128377613Y-113180165D01*
X128221228Y-113150797D01*
X128022244Y-113114255D01*
X127979161Y-113106398D01*
X127851471Y-113081727D01*
X127740154Y-113057593D01*
X127655046Y-113036324D01*
X127605984Y-113020248D01*
X127599406Y-113016500D01*
X127588565Y-112983273D01*
X127579754Y-112909021D01*
X127572977Y-112802376D01*
X127568241Y-112671967D01*
X127565551Y-112526427D01*
X127564914Y-112374386D01*
X127566335Y-112224476D01*
X127569821Y-112085328D01*
X127575377Y-111965572D01*
X127583009Y-111873841D01*
X127592723Y-111818766D01*
X127598579Y-111807493D01*
X127631181Y-111796123D01*
X127705419Y-111777624D01*
X127813897Y-111753602D01*
X127949218Y-111725662D01*
X128103986Y-111695408D01*
X128188308Y-111679551D01*
X128348297Y-111649644D01*
X128490968Y-111622550D01*
X128609349Y-111599631D01*
X128696466Y-111582243D01*
X128745346Y-111571747D01*
X128753391Y-111569420D01*
X128766988Y-111543186D01*
X128795730Y-111479995D01*
X128835786Y-111388877D01*
X128883325Y-111278857D01*
X128934516Y-111158965D01*
X128985527Y-111038227D01*
X129032527Y-110925671D01*
X129071685Y-110830326D01*
X129099170Y-110761217D01*
X129111150Y-110727374D01*
X129111373Y-110725895D01*
X129097792Y-110699197D01*
X129059716Y-110637760D01*
X129001148Y-110547689D01*
X128926089Y-110435090D01*
X128838541Y-110306070D01*
X128787648Y-110231961D01*
X128694910Y-110096077D01*
X128612542Y-109972709D01*
X128544562Y-109868097D01*
X128494989Y-109788483D01*
X128467843Y-109740107D01*
X128463922Y-109729262D01*
X128480776Y-109704020D01*
X128527369Y-109650124D01*
X128597749Y-109573613D01*
X128685966Y-109480523D01*
X128786066Y-109376895D01*
X128892099Y-109268764D01*
X128998112Y-109162170D01*
X129098153Y-109063150D01*
X129186271Y-108977742D01*
X129256514Y-108911985D01*
X129302929Y-108871916D01*
X129318457Y-108862353D01*
X129343740Y-108875800D01*
X129404212Y-108913575D01*
X129493993Y-108971835D01*
X129607204Y-109046734D01*
X129737964Y-109134425D01*
X129836600Y-109201233D01*
X130334958Y-109540112D01*
X130750371Y-109368865D01*
X131165785Y-109197618D01*
X131278367Y-108600427D01*
X131390950Y-108003235D01*
X132633953Y-108003235D01*
X132746536Y-108600427D01*
X132746536Y-108600427D01*
G37*
X132746536Y-108600427D02*
X132859118Y-109197618D01*
X133274531Y-109368865D01*
X133689945Y-109540112D01*
X134188302Y-109201233D01*
X134327869Y-109106877D01*
X134454029Y-109022630D01*
X134560896Y-108952338D01*
X134642583Y-108899847D01*
X134693202Y-108869004D01*
X134706987Y-108862353D01*
X134731821Y-108879458D01*
X134784889Y-108926744D01*
X134860241Y-108998172D01*
X134951930Y-109087700D01*
X135054008Y-109189289D01*
X135160527Y-109296898D01*
X135265537Y-109404487D01*
X135363092Y-109506015D01*
X135447243Y-109595441D01*
X135512041Y-109666726D01*
X135551538Y-109713828D01*
X135560981Y-109729592D01*
X135547392Y-109758653D01*
X135509294Y-109822321D01*
X135450694Y-109914367D01*
X135375598Y-110028564D01*
X135288009Y-110158684D01*
X135237255Y-110232901D01*
X135144746Y-110368422D01*
X135062541Y-110490716D01*
X134994631Y-110593695D01*
X134945001Y-110671273D01*
X134917641Y-110717361D01*
X134913530Y-110727047D01*
X134922850Y-110754574D01*
X134948255Y-110818728D01*
X134985912Y-110910490D01*
X135031987Y-111020839D01*
X135082647Y-111140755D01*
X135134060Y-111261219D01*
X135182390Y-111373209D01*
X135223807Y-111467707D01*
X135254475Y-111535692D01*
X135270562Y-111568143D01*
X135271512Y-111569420D01*
X135296773Y-111575617D01*
X135364046Y-111589440D01*
X135466361Y-111609532D01*
X135596742Y-111634534D01*
X135748217Y-111663086D01*
X135836594Y-111679551D01*
X135998453Y-111710369D01*
X136144650Y-111739694D01*
X136267788Y-111765921D01*
X136360470Y-111787446D01*
X136415302Y-111802665D01*
X136426324Y-111807493D01*
X136437119Y-111840174D01*
X136445830Y-111913985D01*
X136452461Y-112020292D01*
X136457019Y-112150467D01*
X136459510Y-112295876D01*
X136459939Y-112447890D01*
X136458312Y-112597877D01*
X136454636Y-112737206D01*
X136448916Y-112857245D01*
X136441158Y-112949365D01*
X136431369Y-113004932D01*
X136425497Y-113016500D01*
X136390400Y-113030365D01*
X136316029Y-113050188D01*
X136212224Y-113073639D01*
X136088820Y-113098391D01*
X136045742Y-113106398D01*
X135838048Y-113144441D01*
X135673985Y-113175079D01*
X135548131Y-113199529D01*
X135455066Y-113219009D01*
X135389368Y-113234736D01*
X135345618Y-113247928D01*
X135318393Y-113259804D01*
X135302273Y-113271580D01*
X135300018Y-113273908D01*
X135277504Y-113311400D01*
X135243159Y-113384365D01*
X135200412Y-113483867D01*
X135152693Y-113600973D01*
X135103431Y-113726748D01*
X135056056Y-113852257D01*
X135013996Y-113968565D01*
X134980681Y-114066739D01*
X134959542Y-114137843D01*
X134954006Y-114172942D01*
X134954467Y-114174172D01*
X134973224Y-114202861D01*
X135015777Y-114265985D01*
X135077654Y-114356973D01*
X135154383Y-114469255D01*
X135241492Y-114596260D01*
X135266299Y-114632353D01*
X135354753Y-114763203D01*
X135432589Y-114882591D01*
X135495567Y-114983662D01*
X135539446Y-115059559D01*
X135559986Y-115103427D01*
X135560981Y-115108817D01*
X135543723Y-115137144D01*
X135496036Y-115193261D01*
X135424051Y-115271137D01*
X135333898Y-115364740D01*
X135231706Y-115468041D01*
X135123606Y-115575006D01*
X135015729Y-115679606D01*
X134914205Y-115775809D01*
X134825163Y-115857584D01*
X134754734Y-115918900D01*
X134709048Y-115953726D01*
X134696410Y-115959412D01*
X134666992Y-115946020D01*
X134606762Y-115909899D01*
X134525530Y-115857136D01*
X134463031Y-115814667D01*
X134349786Y-115736740D01*
X134215675Y-115644984D01*
X134081156Y-115553375D01*
X134008834Y-115504346D01*
X133764039Y-115338770D01*
X133558551Y-115449875D01*
X133464937Y-115498548D01*
X133385331Y-115536381D01*
X133331468Y-115557958D01*
X133317758Y-115560961D01*
X133301271Y-115538793D01*
X133268746Y-115476149D01*
X133222609Y-115378809D01*
X133165291Y-115252549D01*
X133099217Y-115103150D01*
X133026816Y-114936388D01*
X132950517Y-114758042D01*
X132872747Y-114573891D01*
X132795935Y-114389712D01*
X132722507Y-114211285D01*
X132654893Y-114044387D01*
X132595521Y-113894797D01*
X132546817Y-113768293D01*
X132511211Y-113670654D01*
X132491131Y-113607657D01*
X132487901Y-113586021D01*
X132513497Y-113558424D01*
X132569539Y-113513625D01*
X132644312Y-113460934D01*
X132650588Y-113456765D01*
X132843846Y-113302069D01*
X132999675Y-113121591D01*
X133116725Y-112921102D01*
X133193646Y-112706374D01*
X133229087Y-112483177D01*
X133221698Y-112257281D01*
X133170128Y-112034459D01*
X133073027Y-111820479D01*
X133044459Y-111773664D01*
X132895869Y-111584618D01*
X132720328Y-111432812D01*
X132523911Y-111319034D01*
X132312694Y-111244075D01*
X132092754Y-111208722D01*
X131870164Y-111213767D01*
X131651002Y-111259999D01*
X131441343Y-111348206D01*
X131247262Y-111479179D01*
X131187227Y-111532337D01*
X131034436Y-111698739D01*
X130923098Y-111873912D01*
X130846724Y-112070266D01*
X130804188Y-112264717D01*
X130793687Y-112483342D01*
X130828701Y-112703052D01*
X130905674Y-112916420D01*
X131021048Y-113116022D01*
X131171266Y-113294429D01*
X131352774Y-113444217D01*
X131376628Y-113460006D01*
X131452202Y-113511712D01*
X131509652Y-113556512D01*
X131537118Y-113585117D01*
X131537518Y-113586021D01*
X131531621Y-113616964D01*
X131508246Y-113687191D01*
X131469822Y-113790925D01*
X131418778Y-113922390D01*
X131357543Y-114075807D01*
X131288545Y-114245401D01*
X131214214Y-114425393D01*
X131136979Y-114610008D01*
X131059269Y-114793468D01*
X130983512Y-114969996D01*
X130912138Y-115133814D01*
X130847575Y-115279147D01*
X130792253Y-115400217D01*
X130748601Y-115491247D01*
X130719047Y-115546460D01*
X130707145Y-115560961D01*
X130670778Y-115549669D01*
X130602731Y-115519385D01*
X130514737Y-115475520D01*
X130466351Y-115449875D01*
X130260864Y-115338770D01*
X130016069Y-115504346D01*
X129891107Y-115589170D01*
X129754296Y-115682516D01*
X129626089Y-115770408D01*
X129561872Y-115814667D01*
X129471552Y-115875318D01*
X129395072Y-115923381D01*
X129342408Y-115952770D01*
X129325303Y-115958982D01*
X129300406Y-115942223D01*
X129245306Y-115895436D01*
X129165344Y-115823480D01*
X129065861Y-115731212D01*
X128952201Y-115623490D01*
X128880316Y-115554326D01*
X128754552Y-115430757D01*
X128645864Y-115320234D01*
X128558646Y-115227485D01*
X128497290Y-115157237D01*
X128466192Y-115114220D01*
X128463209Y-115105490D01*
X128477054Y-115072284D01*
X128515313Y-115005142D01*
X128573742Y-114910863D01*
X128648098Y-114796245D01*
X128734136Y-114668083D01*
X128758603Y-114632353D01*
X128847755Y-114502489D01*
X128927739Y-114385569D01*
X128994081Y-114288162D01*
X129042312Y-114216839D01*
X129067958Y-114178170D01*
X129070436Y-114174172D01*
X129066730Y-114143355D01*
X129047062Y-114075599D01*
X129014861Y-113979839D01*
X128973556Y-113865009D01*
X128926576Y-113740044D01*
X128877350Y-113613879D01*
X128829309Y-113495448D01*
X128785882Y-113393685D01*
X128750497Y-113317526D01*
X128726585Y-113275904D01*
X128724885Y-113273908D01*
X128710263Y-113262013D01*
X128685566Y-113250250D01*
X128645373Y-113237401D01*
X128584264Y-113222249D01*
X128496818Y-113203576D01*
X128377613Y-113180165D01*
X128221228Y-113150797D01*
X128022244Y-113114255D01*
X127979161Y-113106398D01*
X127851471Y-113081727D01*
X127740154Y-113057593D01*
X127655046Y-113036324D01*
X127605984Y-113020248D01*
X127599406Y-113016500D01*
X127588565Y-112983273D01*
X127579754Y-112909021D01*
X127572977Y-112802376D01*
X127568241Y-112671967D01*
X127565551Y-112526427D01*
X127564914Y-112374386D01*
X127566335Y-112224476D01*
X127569821Y-112085328D01*
X127575377Y-111965572D01*
X127583009Y-111873841D01*
X127592723Y-111818766D01*
X127598579Y-111807493D01*
X127631181Y-111796123D01*
X127705419Y-111777624D01*
X127813897Y-111753602D01*
X127949218Y-111725662D01*
X128103986Y-111695408D01*
X128188308Y-111679551D01*
X128348297Y-111649644D01*
X128490968Y-111622550D01*
X128609349Y-111599631D01*
X128696466Y-111582243D01*
X128745346Y-111571747D01*
X128753391Y-111569420D01*
X128766988Y-111543186D01*
X128795730Y-111479995D01*
X128835786Y-111388877D01*
X128883325Y-111278857D01*
X128934516Y-111158965D01*
X128985527Y-111038227D01*
X129032527Y-110925671D01*
X129071685Y-110830326D01*
X129099170Y-110761217D01*
X129111150Y-110727374D01*
X129111373Y-110725895D01*
X129097792Y-110699197D01*
X129059716Y-110637760D01*
X129001148Y-110547689D01*
X128926089Y-110435090D01*
X128838541Y-110306070D01*
X128787648Y-110231961D01*
X128694910Y-110096077D01*
X128612542Y-109972709D01*
X128544562Y-109868097D01*
X128494989Y-109788483D01*
X128467843Y-109740107D01*
X128463922Y-109729262D01*
X128480776Y-109704020D01*
X128527369Y-109650124D01*
X128597749Y-109573613D01*
X128685966Y-109480523D01*
X128786066Y-109376895D01*
X128892099Y-109268764D01*
X128998112Y-109162170D01*
X129098153Y-109063150D01*
X129186271Y-108977742D01*
X129256514Y-108911985D01*
X129302929Y-108871916D01*
X129318457Y-108862353D01*
X129343740Y-108875800D01*
X129404212Y-108913575D01*
X129493993Y-108971835D01*
X129607204Y-109046734D01*
X129737964Y-109134425D01*
X129836600Y-109201233D01*
X130334958Y-109540112D01*
X130750371Y-109368865D01*
X131165785Y-109197618D01*
X131278367Y-108600427D01*
X131390950Y-108003235D01*
X132633953Y-108003235D01*
X132746536Y-108600427D01*
D13*
X126790000Y-93758578D02*
X126790000Y-93241422D01*
X128210000Y-93758578D02*
X128210000Y-93241422D01*
X132210000Y-93758578D02*
X132210000Y-93241422D01*
X130790000Y-93758578D02*
X130790000Y-93241422D01*
D14*
X120069001Y-100600000D02*
X120569001Y-100600000D01*
X120069001Y-100600000D02*
X119569001Y-100600000D01*
X123469001Y-102300000D02*
X123469001Y-101400000D01*
X123469001Y-106700000D02*
X123469001Y-107600000D01*
X120069001Y-108400000D02*
X120569001Y-108400000D01*
X120069001Y-108400000D02*
X119569001Y-108400000D01*
X114069001Y-108400000D02*
X114069001Y-107900000D01*
X114069001Y-108400000D02*
X114569001Y-108400000D01*
X114069001Y-100600000D02*
X114069001Y-101100000D01*
X114069001Y-100600000D02*
X114569001Y-100600000D01*
X144720000Y-91700000D02*
X145220000Y-91700000D01*
X144720000Y-91700000D02*
X144720000Y-92200000D01*
X144700000Y-96840000D02*
X145200000Y-96840000D01*
X144700000Y-96840000D02*
X144700000Y-96340000D01*
X151300000Y-96840000D02*
X150800000Y-96840000D01*
X151300000Y-96840000D02*
X151300000Y-96340000D01*
X151290000Y-91690000D02*
X150790000Y-91690000D01*
X151290000Y-91690000D02*
X151290000Y-92190000D01*
X151290000Y-98650000D02*
X151290000Y-99150000D01*
X151290000Y-98650000D02*
X150790000Y-98650000D01*
X151300000Y-103800000D02*
X151300000Y-103300000D01*
X151300000Y-103800000D02*
X150800000Y-103800000D01*
X144700000Y-103800000D02*
X144700000Y-103300000D01*
X144700000Y-103800000D02*
X145200000Y-103800000D01*
X144720000Y-98660000D02*
X144720000Y-99160000D01*
X144720000Y-98660000D02*
X145220000Y-98660000D01*
X144720000Y-106160000D02*
X145220000Y-106160000D01*
X144720000Y-106160000D02*
X144720000Y-106660000D01*
X144700000Y-111300000D02*
X145200000Y-111300000D01*
X144700000Y-111300000D02*
X144700000Y-110800000D01*
X151300000Y-111300000D02*
X150800000Y-111300000D01*
X151300000Y-111300000D02*
X151300000Y-110800000D01*
X151290000Y-106150000D02*
X150790000Y-106150000D01*
X151290000Y-106150000D02*
X151290000Y-106650000D01*
X151290000Y-113150000D02*
X151290000Y-113650000D01*
X151290000Y-113150000D02*
X150790000Y-113150000D01*
X151300000Y-118300000D02*
X151300000Y-117800000D01*
X151300000Y-118300000D02*
X150800000Y-118300000D01*
X144700000Y-118300000D02*
X144700000Y-117800000D01*
X144700000Y-118300000D02*
X145200000Y-118300000D01*
X144720000Y-113160000D02*
X144720000Y-113660000D01*
X144720000Y-113160000D02*
X145220000Y-113160000D01*
D13*
X128210000Y-98178922D02*
X128210000Y-98696078D01*
X126790000Y-98178922D02*
X126790000Y-98696078D01*
X134821078Y-91290000D02*
X134303922Y-91290000D01*
X134821078Y-92710000D02*
X134303922Y-92710000D01*
X134303922Y-94290000D02*
X134821078Y-94290000D01*
X134303922Y-95710000D02*
X134821078Y-95710000D01*
X139803922Y-100290000D02*
X140321078Y-100290000D01*
X139803922Y-101710000D02*
X140321078Y-101710000D01*
X139803922Y-104210000D02*
X140321078Y-104210000D01*
X139803922Y-102790000D02*
X140321078Y-102790000D01*
X139803922Y-105790000D02*
X140321078Y-105790000D01*
X139803922Y-107210000D02*
X140321078Y-107210000D01*
X139803922Y-109710000D02*
X140321078Y-109710000D01*
X139803922Y-108290000D02*
X140321078Y-108290000D01*
D14*
X136475000Y-101550000D02*
X136475000Y-101300000D01*
X136475000Y-101300000D02*
X136150000Y-100925000D01*
X136150000Y-100925000D02*
X135850000Y-100925000D01*
X135850000Y-100925000D02*
X135850000Y-99475000D01*
X136025000Y-104875000D02*
X136475000Y-104875000D01*
X136475000Y-104875000D02*
X136475000Y-104500000D01*
X129525000Y-101275000D02*
X129525000Y-100925000D01*
X129525000Y-100925000D02*
X129875000Y-100925000D01*
X129850000Y-104875000D02*
X129525000Y-104875000D01*
X129525000Y-104875000D02*
X129525000Y-104575000D01*
D13*
X139803922Y-97290000D02*
X140321078Y-97290000D01*
X139803922Y-98710000D02*
X140321078Y-98710000D01*
D15*
X125857142Y-94166666D02*
X125904761Y-94214285D01*
X125952380Y-94357142D01*
X125952380Y-94452380D01*
X125904761Y-94595238D01*
X125809523Y-94690476D01*
X125714285Y-94738095D01*
X125523809Y-94785714D01*
X125380952Y-94785714D01*
X125190476Y-94738095D01*
X125095238Y-94690476D01*
X125000000Y-94595238D01*
X124952380Y-94452380D01*
X124952380Y-94357142D01*
X125000000Y-94214285D01*
X125047619Y-94166666D01*
X125952380Y-93214285D02*
X125952380Y-93785714D01*
X125952380Y-93500000D02*
X124952380Y-93500000D01*
X125095238Y-93595238D01*
X125190476Y-93690476D01*
X125238095Y-93785714D01*
X129857142Y-94166666D02*
X129904761Y-94214285D01*
X129952380Y-94357142D01*
X129952380Y-94452380D01*
X129904761Y-94595238D01*
X129809523Y-94690476D01*
X129714285Y-94738095D01*
X129523809Y-94785714D01*
X129380952Y-94785714D01*
X129190476Y-94738095D01*
X129095238Y-94690476D01*
X129000000Y-94595238D01*
X128952380Y-94452380D01*
X128952380Y-94357142D01*
X129000000Y-94214285D01*
X129047619Y-94166666D01*
X129047619Y-93785714D02*
X129000000Y-93738095D01*
X128952380Y-93642857D01*
X128952380Y-93404761D01*
X129000000Y-93309523D01*
X129047619Y-93261904D01*
X129142857Y-93214285D01*
X129238095Y-93214285D01*
X129380952Y-93261904D01*
X129952380Y-93833333D01*
X129952380Y-93214285D01*
X116166666Y-96452380D02*
X116166666Y-97166666D01*
X116119047Y-97309523D01*
X116023809Y-97404761D01*
X115880952Y-97452380D01*
X115785714Y-97452380D01*
X117166666Y-97452380D02*
X116595238Y-97452380D01*
X116880952Y-97452380D02*
X116880952Y-96452380D01*
X116785714Y-96595238D01*
X116690476Y-96690476D01*
X116595238Y-96738095D01*
X151952380Y-94833333D02*
X152666666Y-94833333D01*
X152809523Y-94880952D01*
X152904761Y-94976190D01*
X152952380Y-95119047D01*
X152952380Y-95214285D01*
X152047619Y-94404761D02*
X152000000Y-94357142D01*
X151952380Y-94261904D01*
X151952380Y-94023809D01*
X152000000Y-93928571D01*
X152047619Y-93880952D01*
X152142857Y-93833333D01*
X152238095Y-93833333D01*
X152380952Y-93880952D01*
X152952380Y-94452380D01*
X152952380Y-93833333D01*
X151952380Y-101793333D02*
X152666666Y-101793333D01*
X152809523Y-101840952D01*
X152904761Y-101936190D01*
X152952380Y-102079047D01*
X152952380Y-102174285D01*
X151952380Y-101412380D02*
X151952380Y-100793333D01*
X152333333Y-101126666D01*
X152333333Y-100983809D01*
X152380952Y-100888571D01*
X152428571Y-100840952D01*
X152523809Y-100793333D01*
X152761904Y-100793333D01*
X152857142Y-100840952D01*
X152904761Y-100888571D01*
X152952380Y-100983809D01*
X152952380Y-101269523D01*
X152904761Y-101364761D01*
X152857142Y-101412380D01*
X151952380Y-109293333D02*
X152666666Y-109293333D01*
X152809523Y-109340952D01*
X152904761Y-109436190D01*
X152952380Y-109579047D01*
X152952380Y-109674285D01*
X152285714Y-108388571D02*
X152952380Y-108388571D01*
X151904761Y-108626666D02*
X152619047Y-108864761D01*
X152619047Y-108245714D01*
X151952380Y-116333333D02*
X152666666Y-116333333D01*
X152809523Y-116380952D01*
X152904761Y-116476190D01*
X152952380Y-116619047D01*
X152952380Y-116714285D01*
X151952380Y-115380952D02*
X151952380Y-115857142D01*
X152428571Y-115904761D01*
X152380952Y-115857142D01*
X152333333Y-115761904D01*
X152333333Y-115523809D01*
X152380952Y-115428571D01*
X152428571Y-115380952D01*
X152523809Y-115333333D01*
X152761904Y-115333333D01*
X152857142Y-115380952D01*
X152904761Y-115428571D01*
X152952380Y-115523809D01*
X152952380Y-115761904D01*
X152904761Y-115857142D01*
X152857142Y-115904761D01*
X125952380Y-98604166D02*
X125476190Y-98937500D01*
X125952380Y-99175595D02*
X124952380Y-99175595D01*
X124952380Y-98794642D01*
X125000000Y-98699404D01*
X125047619Y-98651785D01*
X125142857Y-98604166D01*
X125285714Y-98604166D01*
X125380952Y-98651785D01*
X125428571Y-98699404D01*
X125476190Y-98794642D01*
X125476190Y-99175595D01*
X125952380Y-97651785D02*
X125952380Y-98223214D01*
X125952380Y-97937500D02*
X124952380Y-97937500D01*
X125095238Y-98032738D01*
X125190476Y-98127976D01*
X125238095Y-98223214D01*
X137333333Y-92452380D02*
X137000000Y-91976190D01*
X136761904Y-92452380D02*
X136761904Y-91452380D01*
X137142857Y-91452380D01*
X137238095Y-91500000D01*
X137285714Y-91547619D01*
X137333333Y-91642857D01*
X137333333Y-91785714D01*
X137285714Y-91880952D01*
X137238095Y-91928571D01*
X137142857Y-91976190D01*
X136761904Y-91976190D01*
X137714285Y-91547619D02*
X137761904Y-91500000D01*
X137857142Y-91452380D01*
X138095238Y-91452380D01*
X138190476Y-91500000D01*
X138238095Y-91547619D01*
X138285714Y-91642857D01*
X138285714Y-91738095D01*
X138238095Y-91880952D01*
X137666666Y-92452380D01*
X138285714Y-92452380D01*
X137333333Y-95452380D02*
X137000000Y-94976190D01*
X136761904Y-95452380D02*
X136761904Y-94452380D01*
X137142857Y-94452380D01*
X137238095Y-94500000D01*
X137285714Y-94547619D01*
X137333333Y-94642857D01*
X137333333Y-94785714D01*
X137285714Y-94880952D01*
X137238095Y-94928571D01*
X137142857Y-94976190D01*
X136761904Y-94976190D01*
X137666666Y-94452380D02*
X138285714Y-94452380D01*
X137952380Y-94833333D01*
X138095238Y-94833333D01*
X138190476Y-94880952D01*
X138238095Y-94928571D01*
X138285714Y-95023809D01*
X138285714Y-95261904D01*
X138238095Y-95357142D01*
X138190476Y-95404761D01*
X138095238Y-95452380D01*
X137809523Y-95452380D01*
X137714285Y-95404761D01*
X137666666Y-95357142D01*
X142895833Y-101452380D02*
X142562500Y-100976190D01*
X142324404Y-101452380D02*
X142324404Y-100452380D01*
X142705357Y-100452380D01*
X142800595Y-100500000D01*
X142848214Y-100547619D01*
X142895833Y-100642857D01*
X142895833Y-100785714D01*
X142848214Y-100880952D01*
X142800595Y-100928571D01*
X142705357Y-100976190D01*
X142324404Y-100976190D01*
X143752976Y-100785714D02*
X143752976Y-101452380D01*
X143514880Y-100404761D02*
X143276785Y-101119047D01*
X143895833Y-101119047D01*
X142895833Y-103952380D02*
X142562500Y-103476190D01*
X142324404Y-103952380D02*
X142324404Y-102952380D01*
X142705357Y-102952380D01*
X142800595Y-103000000D01*
X142848214Y-103047619D01*
X142895833Y-103142857D01*
X142895833Y-103285714D01*
X142848214Y-103380952D01*
X142800595Y-103428571D01*
X142705357Y-103476190D01*
X142324404Y-103476190D01*
X143800595Y-102952380D02*
X143324404Y-102952380D01*
X143276785Y-103428571D01*
X143324404Y-103380952D01*
X143419642Y-103333333D01*
X143657738Y-103333333D01*
X143752976Y-103380952D01*
X143800595Y-103428571D01*
X143848214Y-103523809D01*
X143848214Y-103761904D01*
X143800595Y-103857142D01*
X143752976Y-103904761D01*
X143657738Y-103952380D01*
X143419642Y-103952380D01*
X143324404Y-103904761D01*
X143276785Y-103857142D01*
X142833333Y-106952380D02*
X142500000Y-106476190D01*
X142261904Y-106952380D02*
X142261904Y-105952380D01*
X142642857Y-105952380D01*
X142738095Y-106000000D01*
X142785714Y-106047619D01*
X142833333Y-106142857D01*
X142833333Y-106285714D01*
X142785714Y-106380952D01*
X142738095Y-106428571D01*
X142642857Y-106476190D01*
X142261904Y-106476190D01*
X143690476Y-105952380D02*
X143500000Y-105952380D01*
X143404761Y-106000000D01*
X143357142Y-106047619D01*
X143261904Y-106190476D01*
X143214285Y-106380952D01*
X143214285Y-106761904D01*
X143261904Y-106857142D01*
X143309523Y-106904761D01*
X143404761Y-106952380D01*
X143595238Y-106952380D01*
X143690476Y-106904761D01*
X143738095Y-106857142D01*
X143785714Y-106761904D01*
X143785714Y-106523809D01*
X143738095Y-106428571D01*
X143690476Y-106380952D01*
X143595238Y-106333333D01*
X143404761Y-106333333D01*
X143309523Y-106380952D01*
X143261904Y-106428571D01*
X143214285Y-106523809D01*
X142833333Y-109452380D02*
X142500000Y-108976190D01*
X142261904Y-109452380D02*
X142261904Y-108452380D01*
X142642857Y-108452380D01*
X142738095Y-108500000D01*
X142785714Y-108547619D01*
X142833333Y-108642857D01*
X142833333Y-108785714D01*
X142785714Y-108880952D01*
X142738095Y-108928571D01*
X142642857Y-108976190D01*
X142261904Y-108976190D01*
X143166666Y-108452380D02*
X143833333Y-108452380D01*
X143404761Y-109452380D01*
X127238095Y-100952380D02*
X127238095Y-101761904D01*
X127285714Y-101857142D01*
X127333333Y-101904761D01*
X127428571Y-101952380D01*
X127619047Y-101952380D01*
X127714285Y-101904761D01*
X127761904Y-101857142D01*
X127809523Y-101761904D01*
X127809523Y-100952380D01*
X128809523Y-101952380D02*
X128238095Y-101952380D01*
X128523809Y-101952380D02*
X128523809Y-100952380D01*
X128428571Y-101095238D01*
X128333333Y-101190476D01*
X128238095Y-101238095D01*
X142833333Y-97357142D02*
X142785714Y-97404761D01*
X142642857Y-97452380D01*
X142547619Y-97452380D01*
X142404761Y-97404761D01*
X142309523Y-97309523D01*
X142261904Y-97214285D01*
X142214285Y-97023809D01*
X142214285Y-96880952D01*
X142261904Y-96690476D01*
X142309523Y-96595238D01*
X142404761Y-96500000D01*
X142547619Y-96452380D01*
X142642857Y-96452380D01*
X142785714Y-96500000D01*
X142833333Y-96547619D01*
X143166666Y-96452380D02*
X143785714Y-96452380D01*
X143452380Y-96833333D01*
X143595238Y-96833333D01*
X143690476Y-96880952D01*
X143738095Y-96928571D01*
X143785714Y-97023809D01*
X143785714Y-97261904D01*
X143738095Y-97357142D01*
X143690476Y-97404761D01*
X143595238Y-97452380D01*
X143309523Y-97452380D01*
X143214285Y-97404761D01*
X143166666Y-97357142D01*
M02*
